<?xml version="1.0" standalone="no"?>
<!DOCTYPE svg PUBLIC "-//W3C//DTD SVG 20010904//EN"
 "http://www.w3.org/TR/2001/REC-SVG-20010904/DTD/svg10.dtd">
<svg version="1.0" xmlns="http://www.w3.org/2000/svg"
 width="300.000000pt" height="56.000000pt" viewBox="0 0 300.000000 56.000000"
 preserveAspectRatio="xMidYMid meet">
<metadata>
Created by potrace 1.10, written by Peter Selinger 2001-2011
</metadata>
<g transform="translate(0.000000,56.000000) scale(0.100000,-0.100000)"
fill="#000000" stroke="none">
<path d="M45 470 l29 -30 -27 -28 c-30 -31 -35 -73 -12 -92 10 -8 15 -31 15
-69 0 -51 4 -62 36 -99 l36 -42 87 0 87 0 43 44 c42 43 44 46 39 95 -4 36 -1
54 8 62 24 19 17 80 -12 110 l-25 26 27 22 c15 12 24 24 20 28 -3 4 -20 -6
-36 -22 -25 -24 -37 -29 -75 -26 -35 2 -46 -2 -57 -18 -16 -26 -24 -26 -31 -1
-4 17 -14 20 -59 20 -45 0 -59 4 -78 25 -13 14 -28 25 -34 25 -5 0 3 -13 19
-30z m265 -38 c0 -5 -23 -28 -51 -52 l-51 -43 -42 42 c-40 39 -72 57 -46 26
10 -12 10 -15 -4 -15 -11 0 -16 -9 -16 -30 0 -28 3 -30 36 -30 28 0 35 3 30
15 -7 20 8 19 24 0 10 -12 10 -21 2 -40 -10 -22 -18 -25 -61 -25 -45 0 -53 3
-75 33 -31 41 -32 51 -6 87 17 24 26 28 80 29 56 1 60 -1 66 -24 8 -32 18 -32
32 -1 8 17 21 26 44 29 18 2 34 5 36 5 1 1 2 -2 2 -6z m57 -24 c31 -29 29 -68
-5 -101 -37 -36 -103 -38 -126 -5 -14 20 -14 24 2 41 15 17 17 17 20 3 2 -10
14 -16 33 -16 25 0 29 4 29 29 0 16 -6 31 -12 34 -9 3 -7 10 7 21 26 20 25 20
52 -6z m-217 -48 c0 -13 -7 -20 -20 -20 -13 0 -20 7 -20 20 0 13 7 20 20 20
13 0 20 -7 20 -20z m160 0 c0 -13 -7 -20 -20 -20 -13 0 -20 7 -20 20 0 13 7
20 20 20 13 0 20 -7 20 -20z m-86 -94 c-3 -9 -10 -16 -14 -16 -14 0 -18 24 -7
44 8 17 10 17 18 3 5 -8 6 -22 3 -31z m-157 -53 c-2 -16 -4 -5 -4 22 0 28 2
40 4 28 2 -13 2 -35 0 -50z m303 22 c0 -19 -4 -37 -10 -40 -6 -4 -10 12 -10
40 0 28 4 44 10 40 6 -3 10 -21 10 -40z m-170 4 l13 -31 13 31 c12 29 17 31
64 31 l50 0 0 -48 c0 -40 -5 -53 -28 -75 -25 -24 -35 -27 -103 -27 -69 0 -77
2 -100 28 -22 23 -25 34 -21 75 l4 47 48 0 c44 0 49 -2 60 -31z"/>
<path d="M1035 422 c-13 -9 -4 -228 10 -224 6 1 10 28 10 59 0 50 3 59 24 69
40 20 51 8 51 -55 0 -54 12 -93 22 -75 3 5 3 41 -1 79 -6 68 -7 70 -35 73 -16
2 -33 -1 -39 -7 -20 -20 -26 -12 -29 39 -2 30 -7 47 -13 42z"/>
<path d="M509 413 c-2 -32 3 -209 7 -215 3 -4 14 -2 24 5 16 9 24 9 39 0 15
-10 22 -9 31 2 10 11 7 15 -14 21 -14 3 -33 4 -41 0 -13 -4 -15 8 -15 78 0 47
-3 91 -6 100 -6 16 -23 22 -25 9z"/>
<path d="M1688 414 c-5 -4 -8 -18 -8 -32 0 -13 -10 -33 -22 -43 l-23 -20 22 6
c21 6 22 3 25 -56 3 -67 12 -78 43 -54 20 15 20 16 0 13 -17 -3 -20 4 -23 48
-3 46 -1 52 20 59 l23 8 -22 4 c-17 3 -23 12 -25 40 -2 19 -6 31 -10 27z"/>
<path d="M2365 410 c-3 -5 -3 -15 0 -20 3 -6 3 -19 0 -30 -5 -15 -12 -18 -34
-14 -20 4 -35 0 -54 -18 -54 -49 -40 -96 31 -103 24 -2 47 -7 52 -10 17 -10
11 -44 -9 -55 -30 -16 -50 -12 -76 14 -19 19 -26 22 -35 11 -14 -17 32 -55 66
-55 58 0 114 94 63 107 -14 4 -18 10 -13 22 4 9 8 30 9 46 1 17 7 40 13 52 7
12 12 28 12 37 0 19 -17 30 -25 16z m-22 -102 c15 -23 -6 -68 -32 -68 -18 0
-51 34 -51 52 0 3 7 14 16 23 20 19 53 16 67 -7z"/>
<path d="M1790 384 c0 -15 -10 -34 -22 -44 l-23 -19 23 6 c21 5 22 2 22 -53 0
-76 8 -88 40 -62 24 20 24 20 3 14 -22 -7 -23 -5 -23 47 0 48 3 56 23 62 l22
8 -22 4 c-18 3 -23 11 -23 34 0 16 -4 29 -10 29 -5 0 -10 -12 -10 -26z"/>
<path d="M2615 344 c-22 -11 -30 -12 -36 -2 -15 24 -22 -2 -20 -69 3 -76 6
-84 27 -76 11 4 12 9 4 18 -6 8 -10 33 -8 56 2 36 8 46 31 59 26 14 29 14 43
-4 8 -12 14 -42 14 -73 0 -37 4 -53 13 -53 10 0 13 14 10 58 -5 72 -8 78 -31
91 -13 7 -27 6 -47 -5z"/>
<path d="M655 330 c-10 -11 -15 -23 -11 -28 5 -4 15 3 23 16 19 27 49 29 63 3
15 -30 13 -33 -20 -26 -23 5 -35 1 -55 -19 -30 -30 -31 -40 -5 -66 24 -24 43
-25 59 -6 10 12 9 14 -7 9 -33 -8 -69 45 -41 62 6 4 26 4 46 0 29 -5 34 -10
30 -28 -7 -28 5 -58 19 -49 16 10 2 131 -16 142 -25 16 -66 11 -85 -10z"/>
<path d="M914 331 c-39 -24 -50 -61 -29 -100 20 -40 51 -48 83 -24 14 11 28
26 30 34 4 10 0 9 -15 -3 -32 -29 -61 -23 -80 17 -16 33 -15 36 2 55 22 24 38
25 55 5 9 -11 16 -13 23 -6 7 7 6 15 -3 26 -16 20 -28 19 -66 -4z"/>
<path d="M1210 325 c-32 -34 -31 -79 3 -112 24 -25 28 -26 52 -13 27 14 55 57
55 83 0 25 -40 67 -64 67 -12 0 -33 -11 -46 -25z m81 -37 c9 -23 8 -33 -5 -53
-21 -32 -26 -31 -59 3 -32 34 -34 55 -7 82 17 17 23 18 40 8 11 -7 25 -25 31
-40z"/>
<path d="M1349 343 c-2 -21 3 -110 7 -125 7 -25 41 -32 69 -14 30 20 33 20 37
1 2 -8 8 -11 13 -7 15 11 6 152 -9 152 -10 0 -12 -14 -8 -50 4 -39 1 -55 -13
-70 -39 -43 -78 -12 -75 58 3 53 1 62 -10 62 -5 0 -10 -3 -11 -7z"/>
<path d="M1542 327 c-31 -33 -30 -100 0 -121 12 -9 28 -16 34 -16 15 0 66 41
60 48 -3 3 -15 -3 -26 -13 -17 -16 -24 -16 -48 -5 l-27 12 25 17 c53 35 72 59
60 81 -14 27 -51 25 -78 -3z m58 -23 c0 -15 -55 -56 -64 -47 -12 13 -6 43 15
64 16 16 23 18 35 8 8 -6 14 -17 14 -25z"/>
<path d="M1890 325 c-32 -34 -33 -91 -1 -116 13 -11 29 -19 37 -19 16 0 74 49
58 50 -6 0 -17 -7 -24 -15 -15 -18 -31 -19 -54 -2 -16 12 -15 15 23 40 57 38
55 87 -3 87 -7 0 -23 -11 -36 -25z m60 -21 c0 -15 -55 -56 -64 -47 -12 13 -6
43 15 64 16 16 23 18 35 8 8 -6 14 -17 14 -25z"/>
<path d="M2108 336 c-19 -14 -24 -36 -8 -36 5 0 14 9 20 20 14 25 46 26 60 1
15 -29 13 -34 -14 -27 -61 15 -108 -46 -68 -87 19 -19 24 -19 49 -7 15 8 31
16 36 18 4 2 7 -4 7 -13 0 -15 3 -15 15 -5 11 9 13 16 5 24 -5 5 -10 33 -10
62 0 38 -4 53 -16 58 -25 10 -58 6 -76 -8z m56 -62 c34 -13 7 -70 -30 -62 -22
4 -39 31 -31 52 7 16 33 21 61 10z"/>
<path d="M2431 324 c-27 -34 -27 -88 -1 -114 26 -26 43 -25 77 5 l28 25 -32
-17 c-31 -17 -33 -17 -50 1 -14 15 -15 19 -4 23 7 3 28 18 45 34 26 23 29 31
20 46 -18 29 -59 28 -83 -3z m59 -19 c0 -8 -12 -23 -27 -35 -20 -16 -28 -18
-34 -8 -20 30 22 88 48 67 7 -6 13 -17 13 -24z"/>
<path d="M2749 321 c-36 -36 -37 -73 -4 -106 31 -32 46 -31 76 3 13 15 17 21
9 15 -35 -32 -90 2 -90 54 0 34 43 52 69 29 22 -20 40 -4 21 19 -19 23 -49 18
-81 -14z"/>
<path d="M2890 330 c-42 -42 -35 -109 14 -132 20 -9 30 -8 51 6 14 9 25 22 25
28 0 6 -9 3 -20 -7 -17 -16 -24 -16 -47 -6 -27 12 -27 13 -8 27 46 34 65 55
65 73 0 34 -49 42 -80 11z m60 -26 c0 -11 -50 -54 -64 -54 -3 0 -6 13 -6 29 0
36 36 67 57 49 7 -6 13 -16 13 -24z"/>
<path d="M80 60 c0 -5 25 -10 55 -10 30 0 55 5 55 10 0 6 -25 10 -55 10 -30 0
-55 -4 -55 -10z"/>
<path d="M240 60 c0 -5 23 -10 50 -10 28 0 50 5 50 10 0 6 -22 10 -50 10 -27
0 -50 -4 -50 -10z"/>
</g>
</svg>
